<?xml version="1.0" encoding="UTF-8" standalone="no"?>
<svg
   width="34.395836mm"
   height="34.395832mm"
   viewBox="0 0 34.395836 34.395832"
   version="1.1"
   id="svg5"
   sodipodi:docname="pirate-lady.svg"
   inkscape:version="1.1.1 (c3084ef, 2021-09-22)"
   xmlns:inkscape="http://www.inkscape.org/namespaces/inkscape"
   xmlns:sodipodi="http://sodipodi.sourceforge.net/DTD/sodipodi-0.dtd"
   xmlns="http://www.w3.org/2000/svg"
   xmlns:svg="http://www.w3.org/2000/svg">
  <sodipodi:namedview
     id="namedview188"
     pagecolor="#ffffff"
     bordercolor="#111111"
     borderopacity="1"
     inkscape:pageshadow="0"
     inkscape:pageopacity="0"
     inkscape:pagecheckerboard="1"
     inkscape:document-units="mm"
     showgrid="false"
     inkscape:zoom="2.8602598"
     inkscape:cx="19.229023"
     inkscape:cy="114.32528"
     inkscape:window-width="1440"
     inkscape:window-height="847"
     inkscape:window-x="0"
     inkscape:window-y="25"
     inkscape:window-maximized="0"
     inkscape:current-layer="svg5" />
  <defs
     id="defs2">
    <linearGradient
       id="linearGradient1174">
      <stop
         style="stop-color:#d33636;stop-opacity:1;"
         offset="0"
         id="stop1170" />
      <stop
         style="stop-color:#d33636;stop-opacity:0;"
         offset="1"
         id="stop1172" />
    </linearGradient>
    <radialGradient
       id="radialGradient1176"
       cx="48.286457"
       cy="58.208336"
       r="3.3072915"
       gradientTransform="matrix(1.4000003,0,0,0.4500012,-50.39734,-15.445113)"
       gradientUnits="userSpaceOnUse"
       href="#linearGradient1174" />
    <bx-grid
       x="0"
       y="0"
       width="0.529"
       height="0.529" />
  </defs>
  <g
     id="treasure"
     transform="translate(-41.275007,-46.302082)"
     style="display: inline;">
    <path
       style="fill:#552200;stroke:none"
       d="m 47.095835,80.697915 13.096875,1e-6 V 74.52431 L 58.737501,72.980908 H 48.551043 l -1.455208,1.5434 z"
       id="path155512" />
    <path
       id="path155883"
       style="fill:#aa8800;stroke:none"
       d="m 48.551043,72.980908 -1.455208,1.5434 v 6.173607 h 1.455208 V 76.06771 h 4.365625 v 1.543402 h 1.455209 V 76.06771 H 58.7375 v 4.630205 h 1.455209 v -6.173607 l -1.455209,-1.5434 h -1.455207 l 1.455207,1.5434 H 48.551043 l 1.455208,-1.5434 z" />
  </g>
  <g
     id="monkey"
     style="display:inline"
     transform="translate(-21.151457,-27.842047)">
    <path
       style="fill:#ff7f2a;fill-opacity:1;stroke:none;stroke-width:0.264583px;stroke-linecap:butt;stroke-linejoin:miter;stroke-opacity:1"
       d="m 45.327568,56.207301 -2.884625,6.019744 h 4.762501 c 0.45834,-0.772237 1.19522,-2.180778 0.109945,-2.799631 l 0.683804,-2.492036 z"
       id="path15217" />
    <circle
       style="fill:#ffb380;fill-opacity:1;stroke:none"
       id="path111970"
       cx="44.690208"
       cy="55.822315"
       r="1.0583333" />
    <circle
       style="fill:#ffb380;fill-opacity:1;stroke:none"
       id="path111970-0"
       cx="49.188126"
       cy="55.822315"
       r="1.0583333" />
    <path
       style="fill:#ff7f2a;fill-opacity:1;stroke:none;stroke-width:0.264583px;stroke-linecap:butt;stroke-linejoin:miter;stroke-opacity:1"
       d="m 47.98321,57.120094 c 0,0 0.703061,1.308463 0.32223,2.059578 -0.380832,0.751114 -1.336218,0.121408 -1.336218,0.121408 z"
       id="path28050" />
    <ellipse
       style="fill:#ff7f2a;fill-opacity:1;stroke:none"
       id="path111453"
       cx="46.939163"
       cy="55.557732"
       rx="1.984376"
       ry="1.984375" />
    <ellipse
       style="fill:#ffb380;fill-opacity:1;stroke:none"
       id="path111666"
       cx="46.939167"
       cy="55.822315"
       rx="1.4552081"
       ry="1.3229166" />
    <circle
       style="fill:#000000;fill-opacity:1;stroke:none"
       id="path115023"
       cx="46.013123"
       cy="56.086895"
       r="0.26458332" />
    <circle
       style="fill:#000000;fill-opacity:1;stroke:none"
       id="path115023-7"
       cx="47.865208"
       cy="56.086899"
       r="0.26458332" />
    <ellipse
       style="fill:#550000;fill-opacity:1;stroke:none"
       id="path115239"
       cx="46.939163"
       cy="56.748356"
       rx="0.39687425"
       ry="0.13229166" />
    <ellipse
       style="fill:#d38d5f;fill-opacity:1;stroke:none"
       id="path115613"
       cx="46.939167"
       cy="56.219189"
       rx="0.66145831"
       ry="0.39687499" />
    <circle
       style="fill:#000000;fill-opacity:1;stroke:none"
       id="path115343"
       cx="46.674583"
       cy="56.219189"
       r="0.13229166" />
    <circle
       style="fill:#000000;fill-opacity:1;stroke:none"
       id="path115345"
       cx="47.203747"
       cy="56.219189"
       r="0.13229166" />
    <path
       style="fill:#ff7f2a;fill-opacity:1;stroke:none;stroke-width:0.247623px;stroke-linecap:butt;stroke-linejoin:miter;stroke-opacity:1"
       d="m 42.809946,62.227045 c -1.853997,0 -3.747448,-0.471071 -4.489891,-1.35811 -0.742442,-0.887039 -0.443019,-1.462698 -0.13657,-1.832169 0.30645,-0.369471 1.050616,-0.293722 1.250322,-0.08659 0.199706,0.207131 0.317653,0.409174 0.1209,0.684937 -0.196754,0.275762 -0.620293,-0.187858 -0.752737,-0.04095 -0.132444,0.146913 -0.211617,0.315758 0.29998,0.780795 0.511597,0.465037 2.338154,0.982362 3.904771,1.058333 z"
       id="path16087" />
    <path
       style="fill:#ffb380;fill-opacity:1;stroke:none;stroke-width:0.264583px;stroke-linecap:butt;stroke-linejoin:miter;stroke-opacity:1"
       d="m 47.999194,62.227045 c -0.04951,-0.313276 -0.294751,-0.543406 -0.79375,-0.529167 -0.246911,0.211678 -0.600378,0.387837 -1.058334,0.529167 z"
       id="path18326" />
    <path
       style="fill:#ffb380;fill-opacity:1;stroke:none;stroke-width:0.264583px;stroke-linecap:butt;stroke-linejoin:miter;stroke-opacity:1"
       d="m 46.186382,58.954014 c -0.121468,0.02993 -0.385959,0.140652 -0.205395,-0.106278 0.29835,-0.266524 1.179439,-0.138785 0.917989,0.27109 l -0.320198,0.266815 c -0.0062,0.122558 -0.05165,0.291422 -0.200103,0.316516 -0.368535,0.0013 -0.373925,-0.123832 -0.396833,-0.236541 -0.06852,-0.286028 0.03063,-0.389122 0.20454,-0.511602 z"
       id="path24477" />
  </g>
  <path
     style="display:inline;fill:#aa4400"
     d="m 11.185,10.531 c 0,0 -0.076,7.984 -2.721,11.158 2.252,2.116 15.205,2.116 17.457,0 C 23.276,18.515 23.106,10.58 23.106,10.58 Z"
     id="hair-long-flipped-back"
     inkscape:label="hair-long-flipped-back" />
  <path
     d="m 8.464,15.341 c 0,-0.562 0.292,-1.055 0.733,-1.337 -0.13,-0.23 -0.204,-0.496 -0.204,-0.779 0,-0.876 0.711,-1.587 1.587,-1.587 0.691,0 1.279,0.442 1.497,1.058 h 10.545 c 0.291,-0.325 0.713,-0.529 1.183,-0.529 0.876,0 1.587,0.711 1.587,1.587 0,0.283 -0.074,0.549 -0.204,0.779 0.441,0.282 0.733,0.775 0.733,1.337 0,0.594 -0.327,1.112 -0.81,1.384 0.29,0.373 0.463,0.842 0.463,1.352 0,0.734 -0.358,1.384 -0.909,1.785 0.126,0.228 0.198,0.49 0.198,0.769 0,0.876 -0.711,1.587 -1.587,1.587 -0.876,0 -1.587,-0.711 -1.587,-1.587 0,-0.186 0.032,-0.365 0.091,-0.532 l -9.084,-0.011 c 0,0.004 0,0.009 0,0.014 0,0.876 -0.711,1.587 -1.587,1.587 -0.876,0 -1.587,-0.711 -1.587,-1.587 0,-0.279 0.072,-0.541 0.198,-0.769 -0.551,-0.401 -0.909,-1.051 -0.909,-1.785 0,-0.51 0.173,-0.979 0.463,-1.352 -0.483,-0.272 -0.81,-0.79 -0.81,-1.384 z"
     style="display:inline;fill:#aa4400"
     id="hair-long-curly-back"
     inkscape:label="hair-long-curly-back" />
  <circle
     style="display:inline;fill:#aa4400"
     cx="17.198"
     cy="6.3499999"
     id="hair-bun"
     r="2.645"
     inkscape:label="hair-bun" />
  <path
     style="display:inline;fill:#aa4400"
     d="m 13.754,5.819 c -1.587,0 -3.174,2.116 -2.645,3.703 H 23.276 C 23.386,4.747 15.87,1.587 13.754,5.819 Z"
     id="hair-side-part-volume"
     inkscape:label="hair-side-part-volume" />
  <path
     d="m 23.276,10.316 c 0,3.36 -2.724,6.084 -6.084,6.084 -3.36,0 -6.084,-2.724 -6.084,-6.084 0,-2.923 2.117,-5.555 4.81,-5.95 0.494,-0.072 1.28,0.395 1.28,0.395 0,0 0.774,-0.462 1.332,-0.381 2.63,0.381 4.746,3.036 4.746,5.936 z"
     style="display:inline;fill:#a94400"
     id="hair-middle-part-volume"
     inkscape:label="hair-middle-part-volume" />
  <path
     style="display:inline;fill:#aa4500"
     d="m 22.747,11.109 c 0,0 1.587,2.645 0.529,4.232 H 11.109 c -1.058,-1.587 0.529,-4.232 0.529,-4.232 z"
     id="hair-mid-length-back"
     inkscape:label="hair-mid-length-back" />
  <path
     d="m 20.673,6.35 c 0.876,0 1.587,0.711 1.587,1.587 0,0.005 0,0.011 0,0.016 0.769,0.11 1.361,0.771 1.361,1.571 0,0.876 -0.711,1.587 -1.587,1.587 -0.47,0 -0.892,-0.204 -1.183,-0.529 h -7.233 c -0.291,0.325 -0.713,0.529 -1.183,0.529 -0.876,0 -1.587,-0.711 -1.587,-1.587 0,-0.8 0.592,-1.461 1.361,-1.571 0,-0.005 0,-0.011 0,-0.016 0,-0.876 0.711,-1.587 1.587,-1.587 0.691,0 1.279,0.442 1.497,1.058 h 3.883 C 19.394,6.792 19.982,6.35 20.673,6.35 Z"
     style="display:inline;fill:#aa4400"
     id="hair-curly-high-back"
     inkscape:label="hair-curly-high-back" />
  <g
     id="crab"
     transform="rotate(-13.941499,14.521584,3.2607326)"
     style="display:inline">
    <path
       style="fill:#ac4419;fill-opacity:1;stroke:none;stroke-width:0.264583px;stroke-linecap:butt;stroke-linejoin:miter;stroke-opacity:1"
       d="M 3.2654774,14.028225 H 4.115168 c 0.023466,-0.18882 0.054053,-0.377641 -0.099964,-0.566461 l -0.8663511,0.01666 z"
       id="path14610" />
    <path
       style="fill:#ac4419;fill-opacity:1;stroke:none;stroke-width:0.264583px;stroke-linecap:butt;stroke-linejoin:miter;stroke-opacity:1"
       d="M 3.2784891,13.861619 3.7489642,14.753335 4.9981799,15.361073 4.170205,14.554484 4.0101493,13.754028 Z"
       id="path14678" />
    <path
       id="path12781"
       style="fill:#ac4419;fill-opacity:1;stroke:none;stroke-width:0.999999px;stroke-linecap:butt;stroke-linejoin:miter;stroke-opacity:1"
       d="m 22.757812,46.347656 c -0.187148,0.0033 -0.378844,0.02564 -0.576171,0.06055 l -1.13086,2.042969 2.646485,0.654297 c 0.07079,-0.07658 0.136497,-0.157542 0.197265,-0.242188 l 1.453125,0.435547 c 0.567116,1.344208 0.691687,2.469058 0.56836,4.595703 1.123312,-2.364657 1.362015,-3.987306 0.992187,-5.99414 l -2.457031,-0.785157 c 0.0023,-0.07505 0.0021,-0.150964 0,-0.226562 -0.60048,-0.402937 -1.131915,-0.550914 -1.69336,-0.541016 z"
       transform="scale(0.26458333)" />
    <path
       style="fill:#ac4419;fill-opacity:1;stroke:none;stroke-width:0.264583px;stroke-linecap:butt;stroke-linejoin:miter;stroke-opacity:1"
       d="M 2.3891434,13.024974 C 2.1151389,13.14735 1.9445957,13.407675 1.8028681,13.70642 l 0.1849095,0.496945 1.0727425,-0.763445 z"
       id="path11492" />
    <path
       style="fill:#ac4419;fill-opacity:1;stroke:none;stroke-width:0.264583px;stroke-linecap:butt;stroke-linejoin:miter;stroke-opacity:1"
       d="m 2.897692,13.380053 c -0.2537797,0.16511 -0.4143306,0.381072 -0.4351614,0.673245 0.2664507,0.160399 0.5329015,0.285634 0.7993522,0.229314 0.090036,-0.219287 0.089847,-0.477242 0.031669,-0.76005 z"
       id="path8706" />
    <path
       style="fill:#ac4419;fill-opacity:1;stroke:none;stroke-width:0.264583px;stroke-linecap:butt;stroke-linejoin:miter;stroke-opacity:1"
       d="m 2.5651699,13.997594 c -0.1049234,0.453919 0.032141,0.666678 0.058987,1.120597 0.5391951,0.129319 1.1539689,0.205734 1.9975612,0.121975 C 4.062531,15.16108 3.4584082,15.046877 3.1538244,14.771053 l 0.044974,-0.54351 z"
       id="path8774" />
    <path
       style="fill:#ac4419;fill-opacity:1;stroke:none;stroke-width:0.60588px;stroke-linecap:butt;stroke-linejoin:miter;stroke-opacity:1"
       d="m 0.94590818,12.289068 1.71290992,0.05173 -0.025863,0.856457 -1.7129099,-0.05173 z"
       id="path2247-3" />
    <path
       style="fill:#ac4419;fill-opacity:1;stroke:none;stroke-width:0.60588px;stroke-linecap:butt;stroke-linejoin:miter;stroke-opacity:1"
       d="m 7.4358958,11.333839 -1.7119605,-0.07701 -0.038502,0.85598 1.7119598,0.077 z"
       id="path2247-36" />
    <path
       style="fill:#ac4419;fill-opacity:1;stroke:none;stroke-width:0.428422px;stroke-linecap:butt;stroke-linejoin:miter;stroke-opacity:1"
       d="m 1.8438343,12.192237 c 1.0169706,-1.162698 2.6712195,-1.610129 4.135622,-1.118579 0.2237162,0.827125 0.1457275,2.179669 -1.508521,2.627101 -1.6542483,0.447434 -2.4033847,-0.681396 -2.627101,-1.508522 z"
       id="path974" />
    <path
       id="path974-7"
       style="fill:#e9ddaf;fill-opacity:1;stroke:none;stroke-width:0.428422px;stroke-linecap:butt;stroke-linejoin:miter;stroke-opacity:1"
       d="m 3.8567501,11.429355 a 2.0331673,2.998958 74.865097 0 0 -1.8864772,1.123959 c 0.3255234,0.752051 1.0787225,1.532044 2.5008221,1.147402 1.4221002,-0.384638 1.6794349,-1.437958 1.5814889,-2.251562 a 2.0331673,2.998958 74.865097 0 0 -2.1958338,-0.0198 z" />
    <path
       style="fill:#ac4419;fill-opacity:1;stroke:none;stroke-width:0.428422px;stroke-linecap:butt;stroke-linejoin:miter;stroke-opacity:1"
       d="M 2.9726632,11.443102 2.2235271,10.314273 3.3862254,11.331244 Z"
       id="path1321" />
    <path
       style="fill:#ac4419;fill-opacity:1;stroke:none;stroke-width:0.428422px;stroke-linecap:butt;stroke-linejoin:miter;stroke-opacity:1"
       d="M 4.6269117,10.99567 4.7048998,9.6431251 4.2133496,11.107528 Z"
       id="path1321-4" />
    <path
       style="fill:#806600;fill-opacity:1;stroke:none;stroke-width:0.428422px;stroke-linecap:butt;stroke-linejoin:miter;stroke-opacity:1"
       d="M 4.2472198,12.873636 C 3.7217992,12.571931 3.6099412,12.158368 3.6099412,12.158368 l 0.5254202,0.301704 C 3.9116456,11.632949 3.0845212,11.856665 3.4200954,13.097352 2.5591008,11.55496 5.0404738,10.883812 5.074344,12.64992 4.7387699,11.409233 3.9116456,11.632949 4.1353614,12.460072 l 0.3017045,-0.525419 c 0,0 0.1118579,0.413562 -0.1898461,0.938983 z"
       id="path1650" />
    <ellipse
       style="fill:#483e37;fill-opacity:1;stroke:none;stroke-width:1.61923;-inkscape-stroke:none;stop-color:#000000"
       id="path1976"
       cx="-0.54657972"
       cy="10.965478"
       rx="0.21421127"
       ry="0.42842254"
       transform="rotate(-15.134903)" />
    <ellipse
       style="fill:#483e37;fill-opacity:1;stroke:none;stroke-width:1.61923;-inkscape-stroke:none;stop-color:#000000"
       id="path1976-0"
       cx="2.0239558"
       cy="10.965478"
       rx="0.21421127"
       ry="0.42842254"
       transform="rotate(-15.134903)" />
    <path
       style="fill:#ac4419;fill-opacity:1;stroke:none;stroke-width:0.494699px;stroke-linecap:butt;stroke-linejoin:miter;stroke-opacity:1"
       d="M 9.2479593,12.125384 C 8.4682668,11.290344 8.1219135,11.41762 7.744525,11.770729 7.367138,12.123844 7.3691182,13.879687 9.4780788,14.255094 8.8933078,13.628818 7.7237681,12.376255 9.2479593,12.125384 Z"
       id="path5550-5" />
    <path
       style="fill:#ac4419;fill-opacity:1;stroke:none;stroke-width:0.428422px;stroke-linecap:butt;stroke-linejoin:miter;stroke-opacity:1"
       d="m 10.083603,14.275856 c 0.04151,-1.21105 -0.2508753,-1.524191 -0.8356437,-2.150472 l -1.2110509,-0.04151 c 0.6055235,0.02076 1.4826768,0.960177 2.0466946,2.19198 z"
       id="path6058-9" />
    <path
       style="fill:#ac4419;fill-opacity:1;stroke:none;stroke-width:0.524708px;stroke-linecap:butt;stroke-linejoin:miter;stroke-opacity:1"
       d="m 7.9976754,12.577853 c -0.1426577,0.403974 -0.7469036,0.19228 -1.2119215,-0.427972 l 0.2853148,-0.807947 c 0.7486179,-0.189992 1.3545784,0.024 1.2119214,0.427972 z"
       id="path6471-54" />
    <path
       style="fill:#ac4419;fill-opacity:1;stroke:none;stroke-width:0.494699px;stroke-linecap:butt;stroke-linejoin:miter;stroke-opacity:1"
       d="M 0.78256,10.930877 C 1.1381167,12.016599 0.8596066,12.258648 0.36827825,12.418986 -0.12305245,12.579321 -1.6603129,11.730895 -0.97222346,9.7023056 -0.70554831,10.516596 -0.17221257,12.14518 0.78256,10.930877 Z"
       id="path5550-8" />
    <path
       style="fill:#ac4419;fill-opacity:1;stroke:none;stroke-width:0.428422px;stroke-linecap:butt;stroke-linejoin:miter;stroke-opacity:1"
       d="M -0.69841437,9.161824 C 0.38254952,9.7094403 0.51588758,10.116587 0.78256,10.930877 L 0.23494281,12.011841 C 0.50874692,11.471356 0.10874099,10.249923 -0.69840664,9.1618218 Z"
       id="path6058-1" />
    <path
       style="fill:#ac4419;fill-opacity:1;stroke:none;stroke-width:0.524708px;stroke-linecap:butt;stroke-linejoin:miter;stroke-opacity:1"
       d="m 0.06404075,12.18679 c -0.31958049,0.285336 0.10565581,0.763986 0.85600425,0.958733 l 0.6391548,-0.57067 C 1.4507805,11.810149 1.0227729,11.330785 0.70319383,11.61612 Z"
       id="path6471-5" />
    <path
       style="fill:#ac4419;fill-opacity:1;stroke:none;stroke-width:0.264583px;stroke-linecap:butt;stroke-linejoin:miter;stroke-opacity:1"
       d="m 1.8722092,13.764205 -0.4276033,0.87832 c -4.71e-4,0.506958 0.302992,1.026269 0.655817,1.465968 C 1.9357582,15.64535 1.8914482,15.175013 1.8375389,14.73498 L 2.3460402,13.926 Z"
       id="path11673" />
  </g>
  <path
     style="display: inline; fill: rgb(244, 210, 196); fill-opacity: 1; stroke: none;"
     d="M 4.636 22.49 C 5.29 20.102 6.877 16.928 8.993 15.341 L 25.392 15.341 C 27.508 16.928 29.095 20.102 29.749 22.49 L 27.508 23.805 C 26.855 21.152 25.921 19.044 23.805 17.457 L 10.58 17.457 C 8.464 19.044 7.53 21.152 6.877 23.805 L 4.636 22.49 Z"
     id="arms" />
  <g
     id="left-hook"
     transform="matrix(-1,0,0,1,65.490169,-46.302083)"
     style="display:inline">
    <path
       style="fill:#999999;fill-opacity:1;stroke:none"
       d="m 37.196008,70.363326 c 2.071869,7.433812 -5.184479,5.742996 -3.803011,2.215612 -0.04523,3.713329 5.485677,3.120869 2.482406,-2.137435 z"
       id="path33355-9" />
    <path
       style="fill:#784421;stroke:none"
       d="m 35.719,68.792 2.263,1.315 c -0.529,2.646 -2.792,1.331 -2.263,-1.315 z"
       id="path32778-0" />
  </g>
  <g
     id="hook"
     style="display: inline;"
     transform="translate(-31.082748,-46.302083)">
    <path
       style="fill:#999999;fill-opacity:1;stroke:none"
       d="m 37.196008,70.363326 c 2.071869,7.433812 -5.184479,5.742996 -3.803011,2.215612 -0.04523,3.713329 5.485677,3.120869 2.482406,-2.137435 z"
       id="path33355" />
    <path
       style="fill:#784421;stroke:none"
       d="M 35.719 68.792 L 37.96 70.107 C 37.431 72.753 35.19 71.438 35.719 68.792 Z"
       id="path32778" />
  </g>
  <path
     style="display: inline; fill: rgb(244, 210, 196); fill-opacity: 1; stroke: none;"
     d="m 27.125584,23.812501 c -1.322916,0.793751 -0.793749,3.175001 0,1.322917 0.793751,0.529167 -0.793749,2.381251 1.322918,2.381251 2.116666,0 2.116666,-2.910417 1.322916,-5.027085 z"
     id="left-hand" />
  <path
     style="display: inline; fill: rgb(244, 210, 196); fill-opacity: 1; stroke: none;"
     d="m 7.2818354,23.812501 c 1.322916,0.793751 0.793749,3.175001 0,1.322917 -0.793751,0.529167 0.793749,2.381251 -1.322918,2.381251 -2.116666,0 -2.116666,-2.910417 -1.322916,-5.027085 z"
     id="hand" />
  <g
     id="tattoos"
     style="display:inline"
     transform="translate(-31.082748,-46.302083)">
    <path
       id="path50161"
       style="color:#000000;fill:#165044;stroke-width:1"
       d="m 57.596,64.377 c 0.101,-0.052 0.209,-0.111 0.328,-0.131 0.06,-0.008 0.126,-0.006 0.189,0.024 0.063,0.028 0.115,0.081 0.149,0.149 0.035,0.068 0.049,0.143 0.037,0.21 -0.014,0.068 -0.05,0.124 -0.092,0.167 -0.055,0.057 -0.121,0.098 -0.189,0.136 l 0.106,0.203 0.502,-0.258 0.105,0.204 -0.502,0.26 0.522,1.01 c 0.187,-0.129 0.323,-0.323 0.351,-0.557 l -0.113,-0.035 0.184,-0.575 0.336,0.654 -0.204,0.105 c -0.079,0.297 -0.292,0.538 -0.555,0.673 -0.263,0.135 -0.582,0.17 -0.869,0.062 l -0.205,0.106 -0.337,-0.654 0.574,0.184 -0.036,0.114 c 0.207,0.111 0.443,0.112 0.656,0.034 l -0.52,-1.01 -0.502,0.258 -0.106,-0.205 0.502,-0.258 -0.105,-0.204 c -0.069,0.034 -0.142,0.064 -0.22,0.075 -0.06,0.009 -0.126,0.007 -0.189,-0.022 -0.062,-0.03 -0.115,-0.084 -0.15,-0.152 -0.035,-0.067 -0.048,-0.14 -0.035,-0.208 0.013,-0.068 0.048,-0.124 0.091,-0.167 0.064,-0.064 0.141,-0.112 0.219,-0.152 0.026,-0.014 0.052,-0.027 0.078,-0.04 z m -0.133,0.352 c -0.021,0.021 -0.027,0.036 -0.03,0.049 -0.003,0.012 -0.003,0.027 0.014,0.06 0.018,0.035 0.031,0.045 0.043,0.05 0.011,0.005 0.028,0.009 0.057,0.004 0.06,-0.009 0.157,-0.056 0.257,-0.109 0.102,-0.052 0.197,-0.104 0.239,-0.146 0.021,-0.022 0.027,-0.038 0.03,-0.049 0.002,-0.013 0.002,-0.03 -0.016,-0.064 -0.017,-0.034 -0.03,-0.042 -0.041,-0.048 -0.011,-0.003 -0.027,-0.008 -0.057,-0.004 -0.059,0.011 -0.156,0.056 -0.258,0.109 -0.013,0.006 -0.026,0.013 -0.038,0.019 -0.087,0.046 -0.164,0.091 -0.2,0.129 z" />
    <path
       id="path4139-3"
       style="fill:#165044;fill-opacity:1;stroke:none"
       d="M 38.381,66.436 38.2,66.933 36.862,65.822 c 0.075,-0.152 0.153,-0.303 0.234,-0.454 z m 0.883,-1.649 0.182,-0.497 0.867,0.721 c -0.109,0.126 -0.214,0.254 -0.314,0.385 z m -1.777,-0.11 1.921,1.595 c -0.085,0.145 -0.167,0.293 -0.246,0.443 l -1.927,-1.601 c 0.082,-0.147 0.166,-0.293 0.252,-0.437 z m 2.053,1.379 -1.921,-1.594 c 0.089,-0.143 0.18,-0.283 0.273,-0.422 l 1.927,1.599 c -0.097,0.137 -0.19,0.276 -0.279,0.417 z" />
  </g>
  <g
     id="arm-dirt"
     transform="translate(-31.082748,-46.302083)"
     style="display:inline">
    <path
       id="arms-7"
       style="display:inline;fill:#917c6f;fill-opacity:1;stroke:none"
       d="m 38.113,66.979 c 0.827,0.233 0.127,1.674 -0.841,1.352 -0.967,-0.322 -0.467,0.27 -1.015,0.35 -0.19,0.027 -0.349,-0.015 -0.482,-0.102 0.103,-0.352 0.224,-0.719 0.364,-1.094 0.362,-0.005 0.721,-0.019 0.834,-0.163 0.27,-0.343 -0.283,-0.846 0.253,-0.89 0.034,-0.003 0.064,-0.004 0.09,-0.004 0.393,0.004 0.022,0.333 0.797,0.551 z m 20.482,-2.308 c -0.116,0.05 -0.266,0.089 -0.454,0.118 C 57.349,64.91 57.497,64.618 57,64.214 56.504,63.81 56.463,64.76 56.035,64.199 c -0.428,-0.562 0.803,-0.165 1.099,-1.214 0.076,-0.272 0.168,-0.427 0.272,-0.501 0.482,0.501 0.928,1.077 1.332,1.692 0.016,0.283 -0.022,0.495 -0.143,0.495 z" />
  </g>
  <path
     style="fill: rgb(120, 33, 33);"
     d="M 14.812 29.624 L 10.58 28.037 C 8.993 24.334 10.58 20.631 12.167 19.573 L 16.399 19.573 L 19.044 19.573 L 19.044 19.582 L 22.218 19.573 C 23.805 20.631 25.392 24.346 23.805 28.049 L 19.573 29.636 L 17.986 23.817 L 17.986 23.805 L 16.399 23.805 L 14.812 29.624 Z"
     id="pants"
     inkscape:label="pants" />
  <path
     style="fill: rgb(0, 128, 128);"
     d="M 11.638 19.573 L 8.993 15.341 C 8.993 15.341 13.754 13.754 17.198 13.758 C 20.631 13.762 25.392 15.341 25.392 15.341 L 22.747 19.573 L 25.392 24.334 C 20.014 24.334 17.871 21.746 17.193 20.617 C 16.514 21.746 14.371 24.334 8.993 24.334 L 11.638 19.573 Z"
     id="shirt"
     inkscape:label="shirt" />
  <path
     id="peg-leg"
     style="display: inline; fill: rgb(160, 90, 44);"
     d="M 19.573 29.624 L 23.805 28.037 L 21.953 30.416 L 21.953 34.385 L 20.63 34.385 L 20.63 30.416 L 19.573 29.624 Z" />
  <path
     style="display: inline; fill: rgb(120, 68, 33); stroke: none;"
     d="M 9.522 34.385 L 11.109 32.269 L 10.58 29.624 L 9.72 29.624 C 9.514 28.771 9.671 28.25 10.2 27.387 L 15.458 28.257 C 15.659 28.568 15.603 29.624 15.556 29.965 L 15.088 29.898 L 14.556 31.984 L 14.283 34.385 L 13.225 34.385 L 13.225 33.797 L 12.137 34.385 L 9.522 34.385 Z"
     id="boot" />
  <path
     style="display: inline; fill: rgb(120, 68, 33); stroke: none;"
     d="M 22.248 34.385 L 21.16 33.797 L 21.16 34.385 L 20.102 34.385 L 19.829 31.984 L 19.297 29.898 L 18.829 29.965 C 18.782 29.624 18.726 28.568 18.927 28.257 L 24.185 27.387 C 24.714 28.25 24.871 28.771 24.665 29.624 L 23.805 29.624 L 23.276 32.269 L 24.863 34.385 L 22.248 34.385 Z"
     id="left-boot"
     inkscape:label="left-boot" />
  <g
     id="rat"
     style=""
     transform="matrix(1, 0, 0, 1, 2.645264, -0.946806)">
    <circle
       style="fill:#e9afaf;stroke-width:1;-inkscape-stroke:none;stop-color:#000000"
       id="path1703"
       cx="10.318749"
       cy="26.987499"
       r="0.52916664" />
    <circle
       style="fill:#e9afaf;stroke-width:1;-inkscape-stroke:none;stop-color:#000000"
       id="path1703-0"
       cx="11.90625"
       cy="26.987499"
       r="0.52916664" />
    <path
       style="fill:#917c6f;fill-opacity:1;stroke:none;stroke-width:0.264583px;stroke-linecap:butt;stroke-linejoin:miter;stroke-opacity:1"
       d="M 11.113 27.252 C 11.872 27.252 12.147 28.947 12.169 29.094 L 10.121 28.755 C 10.242 28.218 10.539 27.252 11.113 27.252 Z"
       id="path2447" />
    <path
       style="fill:#ac9d93;fill-opacity:1;stroke:none;stroke-width:0.264583px;stroke-linecap:butt;stroke-linejoin:miter;stroke-opacity:1"
       d="m 11.906249,27.252084 c -0.264584,-0.529167 -1.322917,-0.529167 -1.5875,0 l 0.79375,1.5875 z"
       id="path1840" />
    <ellipse
       style="fill:#241c1c;fill-opacity:1;stroke:none;stroke-width:1.29504;-inkscape-stroke:none;stop-color:#000000"
       id="path2270"
       cx="10.715625"
       cy="27.55938"
       rx="0.13229166"
       ry="0.22186938" />
    <ellipse
       style="fill:#241c1c;fill-opacity:1;stroke:none;stroke-width:1.29504;-inkscape-stroke:none;stop-color:#000000"
       id="path2270-9"
       cx="11.509375"
       cy="27.55938"
       rx="0.13229166"
       ry="0.22186938" />
    <path
       style="fill:#e9afaf;fill-opacity:1;stroke:none;stroke-width:0.264583px;stroke-linecap:butt;stroke-linejoin:miter;stroke-opacity:1"
       d="M 10.134 29.107 L 10.329 28.895 L 10.372 29.239 L 10.573 28.942 L 10.654 29.207 C 10.964 28.49 10.154 28.265 10.134 29.107 L 10.134 29.107 Z"
       id="path2813" />
    <path
       style="fill:#e9afaf;fill-opacity:1;stroke:none;stroke-width:0.264583px;stroke-linecap:butt;stroke-linejoin:miter;stroke-opacity:1"
       d="M 12.123 29.314 L 11.927 29.102 L 11.884 29.446 L 11.683 29.149 L 11.602 29.414 C 11.293 28.697 12.102 28.472 12.123 29.314 L 12.123 29.314 Z"
       id="path2813-4" />
  </g>
  <path
     id="crab-leg"
     style="display:inline;fill:#ac4419;fill-opacity:1;stroke:none;stroke-width:0.264583px;stroke-linecap:butt;stroke-linejoin:miter;stroke-opacity:1"
     d="m 8.0368372,14.247875 c -0.098675,0.05087 -0.1931039,0.142025 -0.2467775,0.302275 -0.1591513,0.46645 0.3065298,0.682841 0.3065298,0.682841 0.052085,-0.03683 0.1001523,-0.07502 0.1428633,-0.115027 0.3295492,0.247826 0.3497471,0.155365 0.6148874,1.199775 0.1235258,-0.493484 0.2392666,-1.113575 0.00332,-1.623839 L 8.4838067,14.372034 c -0.010424,-0.05507 -0.026204,-0.111953 -0.046898,-0.169761 0,0 -0.2103525,-0.05127 -0.4000715,0.0456 z" />
  <rect
     style="display: inline; fill: rgb(0, 0, 0); fill-opacity: 1; stroke: none;"
     id="belt"
     width="12.167"
     height="1.587"
     x="11.109"
     y="18.785" />
  <g
     id="sabre"
     style="display:inline"
     transform="translate(-34.139252,-47.629997)">
    <path
       style="fill:#666666;stroke:none"
       d="m 56.513972,67.730291 c 0,7.050484 1.810367,8.178563 3.017278,9.870679 -3.017278,0 -4.525917,-4.230291 -4.525917,-9.870679 z"
       id="path135698" />
    <path
       id="rect136147"
       style="fill:#333333;fill-opacity:1;stroke:none"
       d="m 55.759651,63.499999 a 0.75431992,0.70504844 0 0 0 -0.754319,0.705049 0.75431992,0.70504844 0 0 0 0.03536,0.212617 c -0.432988,0.140003 -1.24227,0.511967 -1.24227,1.338489 0,0.667577 0.422793,1.137582 0.767873,1.410097 H 54.10015 v 0.564039 h 3.017278 v -0.564039 h -0.905184 v -2.397715 a 0.75431992,0.70504844 0 0 0 0.301728,-0.563488 0.75431992,0.70504844 0 0 0 -0.754321,-0.705049 z M 55.30706,64.93984 v 2.226411 c 0,0 -0.905184,-0.564038 -0.905184,-1.410097 0,-0.57013 0.547706,-0.755674 0.905184,-0.816314 z" />
  </g>
  <g
     id="pistol"
     transform="matrix(-1.108856,-0.302036,-0.302036,1.108856,107.30489,-38.085598)"
     style="display:inline">
    <rect
       style="fill:#999999;fill-opacity:1;stroke:none"
       id="rect141690"
       width="0.52917832"
       height="1.5875"
       x="66.674995"
       y="73.289581" />
    <rect
       style="fill:#999999;fill-opacity:1;stroke:none"
       id="rect140281"
       width="1.0583333"
       height="5.556252"
       x="67.46875"
       y="71.17292" />
    <path
       id="path141794"
       style="fill:#999999;fill-opacity:1;stroke:none"
       d="m 251,265 a 3,3.5 0 0 0 -3,3.5 3,3.5 0 0 0 3,3.5 3,3.5 0 0 0 3,-3.5 3,3.5 0 0 0 -3,-3.5 z m 0,1 a 1.999994,2.4999999 0 0 1 2,2.5 1.999994,2.4999999 0 0 1 -2,2.5 1.999994,2.4999999 0 0 1 -2,-2.5 1.999994,2.4999999 0 0 1 2,-2.5 z"
       transform="scale(0.26458333)" />
    <path
       style="fill:#999999;fill-opacity:1;stroke:none"
       d="m 66.939583,70.64375 c -0.299914,0.145001 -0.636962,0.25701 -0.793751,0.529166 l 1.058334,-0.132292 z"
       id="path142135" />
    <path
       id="path140771"
       style="fill:#803300;stroke:none"
       d="m 250,255 c -2,0 -6,5 -6,7 1.66658,2.33091 8,0 8,7 v 8 c 0,1.00001 1,4 5,4 v -12 h 2 c 0,-7 -5,-12 -9,-14 z"
       transform="scale(0.26458333)" />
    <path
       style="fill:#999999;fill-opacity:1;stroke:none"
       d="M 67.204167,69.320833 V 71.4375 c 0.264583,0.264583 0.529166,0.264583 0.79375,0 0,-1.5875 -0.264584,-1.852083 -0.79375,-2.116667 z"
       id="path146906" />
    <circle
       style="fill:#333333;fill-opacity:1;stroke:none"
       id="path154078-9"
       cx="67.601044"
       cy="71.4375"
       r="0.13229166" />
    <path
       style="fill:#808080;stroke:none"
       d="m 67.997916,70.643749 v 0.79375 c -0.705555,10e-7 -0.705555,-0.793749 0,-0.79375 z"
       id="path151581" />
    <path
       style="fill:#808080;stroke:none"
       d="m 67.997916,70.643749 h 1.058333 l -0.79375,0.264583 -0.264583,0.529167 z"
       id="path151850" />
    <path
       style="fill:#c8c4b7;stroke:none"
       d="m 67.997916,69.849999 0.529166,0.529167 1e-6,-0.793749 -0.264584,-1e-6 z"
       id="path153525" />
    <path
       id="path152812"
       style="fill:#808080;fill-opacity:1;stroke:none"
       d="m 256.95312,263 c -0.94589,0.03 -0.9682,0.98362 -1.92773,1 -0.008,1.4e-4 -0.0169,0 -0.0254,0 a 0.99999995,0.99999995 0 0 0 -1,1 0.99999995,0.99999995 0 0 0 1,1 c 0.0251,0 0.05,-10e-4 0.0742,-0.002 C 256.97536,265.94901 256.01257,264 257,264 l 1,2 v -2 c 0,0 0,-1 -1,-1 -0.0156,0 -0.0317,-4.8e-4 -0.0469,0 z"
       transform="scale(0.26458333)" />
    <path
       style="fill:#999999;stroke:none"
       d="m 68.527083,69.585417 -1e-6,0.793749 L 68.791667,69.85 Z"
       id="path153676" />
    <rect
       style="fill:#999999;fill-opacity:1;stroke:none"
       id="rect153974"
       width="0.52916664"
       height="0.26458332"
       x="68.527084"
       y="69.585419" />
    <circle
       style="fill:#333333;fill-opacity:1;stroke:none"
       id="path154078"
       cx="67.601044"
       cy="70.114586"
       r="0.13229166" />
    <path
       id="path140771-0"
       style="fill:#b3b3b3;stroke:none"
       d="m 66.145832,67.468749 c -0.529166,0 -1.587499,1.322917 -1.587499,1.852083 0.121155,0.16945 0.336729,0.24488 0.583943,0.30489 0.201985,-1.144402 0.860494,-1.657358 1.375111,-1.943033 -0.125709,-0.08098 -0.250399,-0.153363 -0.371555,-0.21394 z" />
  </g>
  <path
     id="head"
     style="font-variation-settings: normal; display: inline; opacity: 1; vector-effect: none; fill: rgb(244, 210, 196); fill-opacity: 1; stroke: none; stroke-width: 1; stroke-linecap: butt; stroke-linejoin: miter; stroke-miterlimit: 4; stroke-dasharray: none; stroke-dashoffset: 0; stroke-opacity: 1; stop-color: rgb(0, 0, 0); stop-opacity: 1;"
     d="M 23.499 9.169 C 24.544 9.169 25.392 10.038 25.392 11.109 C 25.392 12.18 24.544 13.048 23.499 13.048 C 23.192 13.048 22.889 12.97 22.618 12.823 C 21.883 15.264 19.683 16.928 17.193 16.928 C 14.701 16.928 12.501 15.264 11.767 12.823 C 11.495 12.97 11.193 13.048 10.885 13.048 C 9.84 13.048 8.993 12.18 8.993 11.109 C 8.993 10.038 9.84 9.169 10.885 9.169 C 11.193 9.169 11.496 9.246 11.767 9.394 C 11.803 9.275 11.843 9.157 11.885 9.041 C 11.843 9.16 11.804 9.278 11.769 9.396 C 11.754 9.388 11.637 10.58 12.166 10.58 C 12.695 10.58 13.224 6.877 15.34 6.877 C 15.869 6.877 16.403 7.144 17.197 7.144 C 17.991 7.144 18.514 6.877 19.043 6.877 C 21.159 6.877 21.688 10.58 22.217 10.58 C 22.746 10.58 22.632 9.39 22.619 9.397 C 22.619 9.396 22.618 9.395 22.618 9.394 C 22.89 9.247 23.191 9.17 23.499 9.169 Z" />
  <ellipse
     style="fill: rgb(158, 121, 153); fill-opacity: 1; stroke-width: 0.0750554;"
     id="bruise"
     cx="15.83"
     cy="6.295"
     rx="1.323"
     ry="1.588"
     transform="matrix(0.9499, 0.312554, -0.312554, 0.9499, -0.010443, 0.705668)" />
  <g
     id="face-dirt"
     transform="translate(-31.082748,-46.302083)"
     style="display:inline">
    <path
       id="head-3"
       style="display:inline;fill:#917c6f;fill-opacity:1;stroke:none"
       d="m 41.434,57.825 c 0.786,0.425 0.743,-0.549 1.204,-0.554 0.167,-0.002 0.399,0.123 0.761,0.487 1.361,1.371 -0.532,0.676 -0.133,1.299 0.399,0.623 1.133,0.337 1.232,0.766 0.057,0.249 -0.565,0.444 -1.1,0.564 -0.226,-0.39 -0.41,-0.812 -0.545,-1.26 -0.272,0.147 -0.574,0.225 -0.882,0.225 -0.136,0 -0.269,-0.015 -0.398,-0.043 -0.176,-0.31 -1.114,-2.011 -0.139,-1.484 z m 9.942,3.935 c 1.013,0.121 0.047,-0.905 0.508,-1.409 0.151,-0.165 0.437,-0.247 0.75,-0.252 0.21,-0.004 0.432,0.027 0.634,0.091 -0.578,1.091 -1.477,1.953 -2.55,2.478 -0.569,-0.209 -0.252,-1.017 0.658,-0.908 z" />
  </g>
  <g
     id="earrings"
     inkscape:label="earrings">
    <path
       d="m 11.638,13.407 c 0,0.253 -0.083,0.522 -0.202,0.694 -0.124,0.182 -0.372,0.34 -0.592,0.34 -0.219,0 -0.467,-0.158 -0.591,-0.34 -0.119,-0.172 -0.202,-0.441 -0.202,-0.694 0,-0.253 0.083,-0.522 0.202,-0.694 0.119,-0.175 0.352,-0.327 0.564,-0.339 0.255,0 0.255,0.5 0,0.5 -0.057,0.005 -0.081,0.029 -0.143,0.118 -0.076,0.112 -0.114,0.235 -0.114,0.415 0,0.18 0.038,0.303 0.114,0.415 0.071,0.102 0.092,0.119 0.17,0.119 0.079,0 0.1,-0.017 0.171,-0.119 0.076,-0.112 0.114,-0.235 0.114,-0.415 0,-0.153 -0.027,-0.265 -0.082,-0.364 0.171,-0.015 0.339,-0.054 0.5,-0.115 0.056,0.146 0.091,0.316 0.091,0.479 z"
       style="fill:#c9a40e"
       id="path118" />
    <path
       d="m 22.838,12.936 c 0.161,0.061 0.329,0.1 0.5,0.115 -0.055,0.099 -0.082,0.211 -0.082,0.364 0,0.18 0.038,0.303 0.114,0.415 0.071,0.102 0.092,0.119 0.171,0.119 0.078,0 0.099,-0.017 0.17,-0.119 0.076,-0.112 0.114,-0.235 0.114,-0.415 0,-0.18 -0.038,-0.303 -0.114,-0.415 -0.062,-0.089 -0.086,-0.113 -0.143,-0.118 -0.255,0 -0.255,-0.5 0,-0.5 0.212,0.012 0.445,0.164 0.564,0.339 0.119,0.172 0.202,0.441 0.202,0.694 0,0.253 -0.083,0.522 -0.202,0.694 -0.124,0.182 -0.372,0.34 -0.591,0.34 -0.22,0 -0.468,-0.158 -0.592,-0.34 -0.119,-0.172 -0.202,-0.441 -0.202,-0.694 0,-0.163 0.035,-0.333 0.091,-0.479 z"
       style="fill:#c9a40e"
       id="path120" />
  </g>
  <g
     id="full-mouth"
     style="display: inline;">
    <path
       style="fill:#550000;stroke:none"
       d="m 20.505208,13.229167 h -6.614583 c 10e-7,3.968751 6.614584,3.968751 6.614583,0 z"
       id="mouth" />
    <rect
       style="display:inline;fill:#ffffff;fill-opacity:1;stroke:none"
       id="single-tooth"
       width="1.3229166"
       height="1.3229166"
       x="14.552083"
       y="13.229167" />
    <path
       id="teeth"
       style="display:inline;fill:#ffffff;stroke:none"
       d="m 13.890625,13.229167 c 0,0.505349 0.107376,0.946261 0.294555,1.322917 h 6.025473 c 0.187179,-0.376656 0.294555,-0.817568 0.294555,-1.322917 z" />
  </g>
  <g
     id="nostrils"
     style="display: inline;"
     transform="translate(-31.082748,-46.302083)">
    <ellipse
       style="fill:#000000;fill-opacity:1;stroke:none"
       id="path156974"
       cx="47.360416"
       cy="57.811459"
       rx="0.26458332"
       ry="0.39687613" />
    <ellipse
       style="fill:#000000;fill-opacity:1;stroke:none"
       id="path156976"
       cx="49.212502"
       cy="57.811459"
       rx="0.26458332"
       ry="0.39687613" />
  </g>
  <g
     id="nose"
     style=""
     transform="matrix(0.933039, 0, 0, 0.555381, 1.140766, 4.907938)">
    <ellipse
       id="nose-skin"
       style="display: inline; fill: rgb(233, 175, 175); stroke-width: 0.948684;"
       cx="17.203709"
       cy="11.641669"
       rx="1.9843754"
       ry="2.3812513" />
    <ellipse
       style="display: inline; fill: rgb(89, 0, 0); stroke-width: 0.948684; fill-opacity: 0.2;"
       cx="17.203709"
       cy="11.641669"
       rx="1.9843754"
       ry="2.3812513"
       id="ellipse132" />
  </g>
  <ellipse
     style="display: inline; fill: url(&quot;#radialGradient1176&quot;); fill-opacity: 1; stroke-width: 0.0815738;"
     id="drunk-blush"
     cx="17.203709"
     cy="10.74871"
     rx="4.630209"
     ry="1.4882852" />
  <path
     style="display: inline; fill: rgb(145, 124, 111); stroke: none;"
     d="M 16.997 11.255 C 17.292 10.207 18.063 11.064 17.63 11.818 C 17.196 12.573 18.263 11.657 18.595 12.145 C 18.61 12.166 18.624 12.188 18.636 12.209 C 18.297 12.509 17.778 12.7 17.197 12.7 C 17.14 12.7 17.083 12.698 17.027 12.695 C 17.008 12.634 16.963 12.565 16.864 12.484 C 16.605 12.274 16.47 12.43 16.34 12.55 C 16.139 12.475 15.96 12.374 15.811 12.254 C 15.862 12.001 16.752 12.126 16.997 11.255 Z"
     id="nose-dirt" />
  <ellipse
     style="display: inline; fill: rgb(0, 0, 0); fill-opacity: 1;"
     id="left-eye"
     cx="21.292"
     cy="10.977"
     rx="0.661"
     ry="0.661" />
  <ellipse
     style="display:inline;fill:#000000;fill-opacity:1"
     id="eye"
     cx="13.093"
     cy="10.977"
     rx="0.661"
     ry="0.661" />
  <path
     style="display:inline;fill:#aa4400"
     d="m 22.218,10.58 c -0.529,0 -1.058,-3.703 -3.174,-3.703 -0.529,0 -1.052,0.267 -1.846,0.267 -0.794,0 -1.328,-0.267 -1.857,-0.267 -2.116,0 -2.645,3.703 -3.174,3.703 -0.529,0 -0.412,-1.192 -0.397,-1.184 0.735,-2.44 2.935,-4.104 5.426,-4.104 2.49,0 4.69,1.664 5.424,4.105 0.013,-0.007 0.127,1.183 -0.402,1.183 z"
     id="hair-base"
     inkscape:label="hair-base" />
  <path
     style="display:inline;fill:#aa4400"
     d="m 12.696,10.58 c -1.587,-4.761 2.177,-6.465 4.523,-5.628 2.345,-0.837 6.057,0.867 4.47,5.832 -2.216,0 -3.46,-1.209 -4.47,-2.884 -1.011,1.675 -2.307,2.68 -4.523,2.68 z"
     id="hair-middle-part-bangs"
     inkscape:label="hair-middle-part-bangs" />
  <path
     style="display:inline;fill:#aa4400"
     d="M 15.317,7.053 C 14.977,8.699 13.017,9.5 11.636,9.5 10.464,8.312 12.387,5.034 14.403,5.652 16.928,1.587 23.805,5.29 22.745,9.5 21.407,9.5 17.438,9.124 15.317,7.053 Z"
     id="hair-side-parted-bangs"
     inkscape:label="hair-side-parted-bangs" />
  <path
     d="m 23.805,10.051 c 0,0.584 -0.474,1.058 -1.058,1.058 -0.584,0 -1.058,-0.474 -1.058,-1.058 0,-0.03 0.001,-0.06 0.004,-0.089 -0.562,-0.197 -0.979,-0.7 -1.051,-1.31 -0.169,0.051 -0.348,0.078 -0.534,0.078 -0.799,0 -1.481,-0.507 -1.74,-1.217 -0.319,0.264 -0.729,0.422 -1.176,0.422 -0.44,0 -0.844,-0.153 -1.161,-0.41 -0.261,0.707 -0.941,1.212 -1.738,1.212 -0.192,0 -0.376,-0.029 -0.55,-0.083 -0.073,0.608 -0.49,1.111 -1.051,1.308 0.003,0.029 0.004,0.059 0.004,0.089 0,0.584 -0.474,1.058 -1.058,1.058 -0.584,0 -1.058,-0.474 -1.058,-1.058 0,-0.27 0.101,-0.517 0.268,-0.704 C 10.679,9.095 10.58,8.791 10.58,8.464 c 0,-0.876 0.711,-1.587 1.587,-1.587 0.094,0 0.186,0.008 0.275,0.024 0,-0.005 0,-0.01 0,-0.015 0,-1.022 0.829,-1.851 1.851,-1.851 0.44,0 0.844,0.153 1.161,0.41 0.261,-0.707 0.941,-1.212 1.738,-1.212 0.799,0 1.481,0.507 1.74,1.217 0.319,-0.264 0.729,-0.422 1.176,-0.422 1.022,0 1.851,0.829 1.851,1.851 0,0.006 0,0.013 0,0.019 0.084,-0.014 0.171,-0.021 0.259,-0.021 0.876,0 1.587,0.711 1.587,1.587 0,0.327 -0.099,0.631 -0.268,0.883 0.167,0.187 0.268,0.434 0.268,0.704 z"
     style="display:inline;fill:#aa4400"
     id="hair-curly-base"
     inkscape:label="hair-curly-base" />
  <path
     style="display:inline;fill:#aa4500"
     d="m 11.645,10.019 c 1.772,0.037 3.504,-1.797 3.504,-2.408 v 1.222 c 1.154,0 2.308,-1.222 2.308,-2.445 0,-3.667 -4.04,-1.546 -4.04,-1.546 l 0.577,0.324 c -0.009,-0.05 -2.308,0.611 -2.885,2.445 h 0.577 c 0,0 -0.767,1.66 -0.041,2.408 z"
     id="hair-feather-bangs"
     inkscape:label="hair-feather-bangs" />
  <path
     style="display:inline;fill:#aa4500"
     d="M 22.74,10.02 C 20.968,10.057 19.236,8.223 19.236,7.612 v 1.222 c -1.154,0 -2.308,-1.222 -2.308,-2.445 0,-3.667 4.04,-1.546 4.04,-1.546 l -0.573,0.322 c 0.108,-0.017 2.317,0.655 2.881,2.447 h -0.577 c 0,0 0.767,1.66 0.041,2.408 z"
     id="hair-feather-bangs-left"
     inkscape:label="hair-feather-bangs-left" />
  <path
     style="display:inline;fill:#aa4400"
     d="m 13.754,6.877 1.587,-0.529 h 3.703 l 1.587,0.529 1.058,2.116 -1.677,-10e-4 -0.226,-1.337 -0.16,1.337 H 18.723 L 18.497,7.655 18.337,8.992 H 18.052 L 17.915,8.184 17.818,8.992 H 17.234 L 17.145,8.464 17.082,8.992 h -0.727 l -0.268,-1.586 -0.19,1.586 h -0.646 l -0.226,-1.337 -0.16,1.336 h -2.193 z"
     id="hair-straight-bangs"
     inkscape:label="hair-straight-bangs" />
  <g
     id="eyebrows"
     style="display:inline"
     transform="matrix(1,0,0,0.499845,1.848,4.642745)">
    <rect
       style="fill:#aa4400;fill-opacity:1;stroke:none"
       id="left-eyebrow"
       width="2.1140001"
       height="1.058"
       x="18.256001"
       y="9.2600002"
       ry="0.52899998" />
    <rect
       style="display:inline;fill:#aa4400;fill-opacity:1;stroke:none"
       id="eyebrow"
       width="2.1159999"
       height="1.058"
       x="10.319"
       y="9.2609997"
       ry="0.52899998" />
  </g>
  <g
     id="hair-curly-forelocks"
     style="display:inline"
     inkscape:label="hair-curly-forelocks">
    <path
       d="m 12.696,10.58 c 0,0.356 -0.176,0.671 -0.445,0.863 0.273,0.242 0.445,0.595 0.445,0.989 0,0.336 -0.125,0.643 -0.332,0.876 0.502,0.187 0.86,0.672 0.86,1.239 0,0.311 -0.107,0.596 -0.286,0.822 0.467,0.109 0.816,0.529 0.816,1.03 0,0.584 -0.474,1.058 -1.058,1.058 -0.584,0 -1.058,-0.474 -1.058,-1.058 0,-0.195 0.053,-0.378 0.145,-0.535 -0.674,-0.06 -1.203,-0.627 -1.203,-1.317 0,-0.336 0.125,-0.643 0.332,-0.876 -0.502,-0.187 -0.86,-0.672 -0.86,-1.239 0,-0.528 0.309,-0.983 0.756,-1.195 -0.143,-0.181 -0.228,-0.409 -0.228,-0.657 0,-0.584 0.474,-1.058 1.058,-1.058 0.584,0 1.058,0.474 1.058,1.058 z"
       style="fill:#aa4400"
       id="hair-curly-forelocks-right"
       inkscape:label="hair-curly-forelocks-right" />
    <path
       d="m 22.747,9.522 c 0.584,0 1.058,0.474 1.058,1.058 0,0.248 -0.085,0.476 -0.228,0.657 0.447,0.212 0.756,0.667 0.756,1.195 0,0.567 -0.358,1.052 -0.86,1.239 0.207,0.233 0.332,0.54 0.332,0.876 0,0.69 -0.529,1.257 -1.203,1.317 0.092,0.157 0.145,0.34 0.145,0.535 0,0.584 -0.474,1.058 -1.058,1.058 -0.584,0 -1.058,-0.474 -1.058,-1.058 0,-0.501 0.349,-0.921 0.816,-1.03 -0.179,-0.226 -0.286,-0.511 -0.286,-0.822 0,-0.567 0.358,-1.052 0.86,-1.239 -0.207,-0.233 -0.332,-0.54 -0.332,-0.876 0,-0.394 0.172,-0.747 0.445,-0.989 -0.269,-0.192 -0.445,-0.507 -0.445,-0.863 0,-0.584 0.474,-1.058 1.058,-1.058 z"
       style="display:inline;fill:#aa4400"
       id="hair-curly-forelocks-left"
       inkscape:label="hair-curly-forelocks-left" />
  </g>
  <g
     id="hair-wavy-forelocks"
     style="display:inline"
     inkscape:label="hair-wavy-forelocks">
    <path
       style="fill:#aa4400"
       d="m 12.734,9.404 c -0.487,1.38 -0.395,2.451 -0.038,3.821 0.465,1.787 -0.529,1.587 0.529,4.232 -1.371,-0.291 -2.955,-1.587 -2.426,-2.645 1.564,-3.642 -0.758,-1.916 1.368,-6.348 z"
       id="hair-wavy-forelocks-right"
       inkscape:label="hair-wavy-forelocks-right" />
    <path
       style="fill:#aa4400"
       d="m 22.218,8.464 c 2.126,4.432 -0.196,2.706 1.368,6.348 0.529,1.058 -1.055,2.354 -2.426,2.645 1.058,-2.645 0.064,-2.445 0.529,-4.232 0.357,-1.37 0.449,-2.441 -0.038,-3.821 z"
       id="hair-wavy-forelocks-left"
       inkscape:label="hair-wavy-forelocks-left" />
  </g>
  <path
     id="bandanna"
     style="display:inline;fill:#008080;fill-opacity:1"
     d="m 17.196,5.292 c 2.443,0 4.607,1.602 5.381,3.968 H 11.813 c 0.774,-2.366 2.939,-3.968 5.383,-3.968 z" />
  <path
     id="hair-headband-protrusion"
     style="display:inline;fill:#aa4400;fill-opacity:1;stroke-width:1.00167"
     d="m 17.196,5.292 c 1.488953,0 2.874562,0.591 3.906997,1.585 H 13.288 c 1.032434,-0.994 2.419047,-1.585 3.908,-1.585 z"
     inkscape:label="hair-headband-protrusion" />
  <path
     id="eyepatch"
     style="display:inline;fill:#000000;stroke:none"
     d="m 11.768,9.124 v 0.265 h 7.089 c 0.512,3.704 3.583,3.704 3.583,0 h 0.183 V 9.124 Z" />
  <g
     id="hat"
     style="display:inline"
     transform="translate(-31.082748,-46.302082)"
     sodipodi:insensitive="true">
    <path
       style="fill:#a02c2c;stroke:none"
       d="m 40.649621,54.239583 -0.962121,-2.088816 0.577272,0.208882 c -0.07134,-0.621027 -0.312689,-1.030482 -0.192424,-1.879934 l 0.577273,0.208881 C 40.48125,50.00625 40.48125,48.947917 41.034469,48.599781 l 0.384848,0.417762 c 0.120266,-0.863376 0.649433,-1.92171 1.539395,-2.088815 l 0.192424,0.626645 c 0.505114,-0.45954 0.810298,-0.803392 2.309091,-1.25329 v 0.626645 c 0.841856,-0.362061 1.56305,-0.280972 2.693939,0 l -0.264583,0.431689 c 0.721592,0.33421 1.058334,0.79375 1.611553,1.657126 l -0.577273,0.208882 1.34697,1.879935 -0.577272,0.208881 0.577272,1.253289 z"
       id="path107416" />
    <path
       style="display:inline;fill:#000000;stroke:none"
       d="m 38.364583,55.5625 h 19.84375 C 57.910454,52.530457 55.735958,53.2671 53.975,51.858333 51.329167,49.741667 47.39653,47.839794 44.979167,50.270833 41.012424,54.260018 35.71875,48.947917 38.364583,55.5625 Z"
       id="path106501" />
  </g>
  <g
     id="parrot"
     style="display:inline"
     transform="translate(-32.286667,-44.984501)"
     sodipodi:insensitive="true">
    <path
       style="fill:#999999;stroke:none"
       d="m 60.589584,57.15 c 0.212156,-1.246163 -0.460576,-1.74175 -1.587501,-1.852084 l -0.529166,1.5875 z"
       id="path110020" />
    <path
       style="fill:#ffcc00;stroke:none"
       d="m 56.885417,60.324999 c 0,0 -0.79375,-0.529166 -0.79375,-2.381249 0,-1.852084 1.058334,-2.645834 1.5875,-2.910417 1.904159,-0.634719 2.410479,1.538536 1.322917,1.852083 0.02923,1.00937 -0.05348,1.851382 0.79375,2.910417 3.968749,2.645834 2.116667,1.5875 1.852083,2.116667 z"
       id="path109089" />
    <circle
       style="fill:#000000;fill-opacity:1;stroke:none"
       id="path110448"
       cx="58.605209"
       cy="55.959373"
       r="0.39687499" />
    <path
       style="fill:#88aa00;stroke:none"
       d="m 59.002083,56.885416 c 0,0 -1.322917,0.529167 -1.058333,1.852084 0.264584,1.322917 1.852083,1.058333 1.852083,1.058333 z"
       id="path110581" />
  </g>
  <g
     id="sick-bubbles"
     transform="translate(-31.611914,-46.302083)"
     style="display:inline">
    <circle
       style="fill:#89a02c;fill-opacity:1;stroke-width:0.0649999"
       id="path5003"
       cx="56.223957"
       cy="50.932293"
       r="0.66145831" />
    <circle
       style="display:inline;fill:#89a02c;fill-opacity:1;stroke-width:0.0649999"
       id="path5003-5"
       cx="57.546875"
       cy="48.286461"
       r="0.66145831" />
    <circle
       style="display:inline;fill:#89a02c;fill-opacity:1;stroke-width:0.0649999"
       id="path5003-5-3"
       cx="44.317707"
       cy="49.609379"
       r="0.66145831" />
    <circle
       style="fill:#89a02c;fill-opacity:1;stroke-width:0.0649999"
       id="path5009"
       cx="52.255207"
       cy="53.578129"
       r="0.66145831" />
    <circle
       style="fill:#89a02c;fill-opacity:1;stroke-width:0.0649999"
       id="path5013"
       cx="50.932293"
       cy="46.963543"
       r="0.66145831" />
    <circle
       style="fill:#89a02c;fill-opacity:1;stroke-width:0.0649999"
       id="path5015"
       cx="53.181248"
       cy="50.27084"
       r="1.3229166" />
    <circle
       style="display:inline;fill:#89a02c;fill-opacity:1;stroke-width:0.0649999"
       id="path5015-3"
       cx="48.154163"
       cy="51.06459"
       r="1.3229166" />
  </g>
</svg>
